<?xml version="1.0" encoding="UTF-8"?>
<svg width="20px" height="20px" viewBox="0 0 20 20" version="1.1" xmlns="http://www.w3.org/2000/svg" xmlns:xlink="http://www.w3.org/1999/xlink">
    <!-- Generator: Sketch 53 (72520) - https://sketchapp.com -->
    <title>trash</title>
    <desc>Created with Sketch.</desc>
    <g id="trash" stroke="none" stroke-width="1" fill="none" fill-rule="evenodd">
        <g id="noun_Trash_1483004" transform="translate(2.000000, 3.000000)" fill="#B1B1B1" fill-rule="nonzero">
            <g id="Group">
                <path d="M15.423445,2.56578947 L13.2523923,2.56578947 L11.0813397,2.56578947 L11.0813397,1.40131579 C11.0813397,0.631578947 10.4497608,0 9.68002392,0 L6.95633971,0 C6.18660287,0 5.55502392,0.631578947 5.55502392,1.40131579 L5.55502392,2.56578947 L3.38397129,2.56578947 L1.21291866,2.56578947 C0.995813397,2.56578947 0.818181818,2.74342105 0.818181818,2.96052632 C0.818181818,3.17763158 0.995813397,3.35526316 1.21291866,3.35526316 L2.98923445,3.35526316 L2.98923445,13.0657895 C2.98923445,14.1315789 3.8576555,15 4.92344498,15 L11.7129187,15 C12.7787081,15 13.6471292,14.1315789 13.6471292,13.0657895 L13.6471292,3.35526316 L15.423445,3.35526316 C15.6405502,3.35526316 15.8181818,3.17763158 15.8181818,2.96052632 C15.8181818,2.74342105 15.6405502,2.56578947 15.423445,2.56578947 Z M6.34449761,1.40131579 C6.34449761,1.06578947 6.6208134,0.789473684 6.95633971,0.789473684 L9.66028708,0.789473684 C9.9958134,0.789473684 10.2721292,1.06578947 10.2721292,1.40131579 L10.2721292,2.56578947 L6.34449761,2.56578947 L6.34449761,1.40131579 Z M12.8576555,13.0657895 C12.8576555,13.6973684 12.3444976,14.2105263 11.7129187,14.2105263 L4.92344498,14.2105263 C4.29186603,14.2105263 3.77870813,13.6973684 3.77870813,13.0657895 L3.77870813,3.35526316 L5.94976077,3.35526316 L10.6866029,3.35526316 L12.8576555,3.35526316 L12.8576555,13.0657895 Z" id="Shape"></path>
                <path d="M8.31818182,5 C8.04318182,5 7.81818182,5.18 7.81818182,5.4 L7.81818182,11.6 C7.81818182,11.82 8.04318182,12 8.31818182,12 C8.59318182,12 8.81818182,11.82 8.81818182,11.6 L8.81818182,5.4 C8.81818182,5.18 8.59318182,5 8.31818182,5 Z" id="Path"></path>
                <path d="M6.31818182,5 C6.04318182,5 5.81818182,5.18 5.81818182,5.4 L5.81818182,11.6 C5.81818182,11.82 6.04318182,12 6.31818182,12 C6.59318182,12 6.81818182,11.82 6.81818182,11.6 L6.81818182,5.4 C6.81818182,5.18 6.59318182,5 6.31818182,5 Z" id="Path"></path>
                <path d="M10.3181818,5 C10.0431818,5 9.81818182,5.18 9.81818182,5.4 L9.81818182,11.6 C9.81818182,11.82 10.0431818,12 10.3181818,12 C10.5931818,12 10.8181818,11.82 10.8181818,11.6 L10.8181818,5.4 C10.8181818,5.18 10.5931818,5 10.3181818,5 Z" id="Path"></path>
            </g>
        </g>
    </g>
</svg>